<?xml version="1.0" encoding="UTF-8" standalone="no"?>
<!-- Created with Inkscape (http://www.inkscape.org/) -->

<svg
   xmlns:dc="http://purl.org/dc/elements/1.1/"
   xmlns:cc="http://creativecommons.org/ns#"
   xmlns:rdf="http://www.w3.org/1999/02/22-rdf-syntax-ns#"
   xmlns:svg="http://www.w3.org/2000/svg"
   xmlns="http://www.w3.org/2000/svg"
   xmlns:sodipodi="http://sodipodi.sourceforge.net/DTD/sodipodi-0.dtd"
   xmlns:inkscape="http://www.inkscape.org/namespaces/inkscape"
   width="210mm"
   height="297mm"
   viewBox="0 0 210 297"
   version="1.1"
   id="svg8"
   inkscape:version="0.92.4 (5da689c313, 2019-01-14)"
   sodipodi:docname="logo.svg">
  <defs
     id="defs2" />
  <sodipodi:namedview
     id="base"
     pagecolor="#ffffff"
     bordercolor="#666666"
     borderopacity="1.0"
     inkscape:pageopacity="0.0"
     inkscape:pageshadow="2"
     inkscape:zoom="0.49497475"
     inkscape:cx="241.45006"
     inkscape:cy="465.18319"
     inkscape:document-units="mm"
     inkscape:current-layer="layer1-3"
     showgrid="false"
     inkscape:window-width="1920"
     inkscape:window-height="1001"
     inkscape:window-x="-9"
     inkscape:window-y="-9"
     inkscape:window-maximized="1" />
  <metadata
     id="metadata5">
    <rdf:RDF>
      <cc:Work
         rdf:about="">
        <dc:format>image/svg+xml</dc:format>
        <dc:type
           rdf:resource="http://purl.org/dc/dcmitype/StillImage" />
        <dc:title />
      </cc:Work>
    </rdf:RDF>
  </metadata>
  <g
     inkscape:label="Layer 1"
     inkscape:groupmode="layer"
     id="layer1">
    <g
       id="layer1-3"
       inkscape:label="Layer 1"
       transform="matrix(3.2160468,0,0,3.2604759,-210.1438,-414.45)">
      <g
         transform="matrix(0.21032773,0,0,0.21123633,71.380142,124.97821)"
         id="g3717">
        <path
           inkscape:connector-curvature="0"
           d="m 97.1,170 -3.9,22.9 c -0.6,3.7 0.9,7.4 3.9,9.6 1.7,1.3 3.7,1.9 5.8,1.9 1.6,0 3.1,-0.4 4.6,-1.1 l 20.6,-10.8 20.6,10.8 c 3.3,1.8 7.3,1.5 10.4,-0.7 3.1,-2.2 4.6,-5.9 3.9,-9.6 l -3.9,-22.9 16.6,-16.2 c 2.7,-2.6 3.7,-6.5 2.5,-10.1 -1.2,-3.6 -4.2,-6.2 -7.9,-6.7 l -23,-3.3 L 137,113 c -1.7,-3.4 -5.1,-5.5 -8.8,-5.5 -3.8,0 -7.2,2.1 -8.8,5.5 l -10.3,20.8 -23,3.3 c -3.7,0.5 -6.8,3.1 -7.9,6.7 -1.2,3.6 -0.2,7.5 2.5,10.1 z m 15.8,-26.9 c 1.6,-0.2 3,-1.3 3.7,-2.7 l 11.3,-23.2 11.4,23.2 c 0.7,1.5 2.1,2.5 3.7,2.7 l 25.5,3.6 -18.4,18 c -1.2,1.1 -1.7,2.8 -1.4,4.4 l 4.5,25.4 -22.9,-12 c -1.4,-0.8 -3.2,-0.8 -4.6,0 l -22.7,12 4.4,-25.5 c 0.3,-1.6 -0.3,-3.3 -1.4,-4.4 L 87.4,146.7 Z"
           id="path3713" />
        <path
           inkscape:connector-curvature="0"
           d="m 234.5,35.8 h -28 v -15 c 0,-2.7 -2.2,-5 -5,-5 -2.8,0 -5,2.2 -5,5 v 15 h -137 v -15 c 0,-2.7 -2.2,-5 -5,-5 -2.7,0 -5,2.2 -5,5 v 15 h -28 c -8.7,0 -15.7,7 -15.7,15.7 v 24.9 c 0,0 0,0 0,0 v 148.1 c 0,8.7 7,15.7 15.7,15.7 h 213 c 8.7,0 15.7,-7 15.7,-15.7 V 76.4 c 0,0 0,0 0,0 V 51.5 c 0,-8.7 -7.1,-15.7 -15.7,-15.7 z m 5.8,188.7 c 0,3.2 -2.6,5.8 -5.8,5.8 h -213 c -3.2,0 -5.8,-2.6 -5.8,-5.8 V 81.4 h 224.5 v 143.1 z m 0,-153 H 15.7 v -20 c 0,-3.2 2.6,-5.8 5.8,-5.8 h 213 c 3.2,0 5.8,2.6 5.8,5.8 z"
           id="path3715" />
      </g>
      <path
         inkscape:connector-curvature="0"
         id="path3750"
         d="m 74.700243,137.82806 0.01067,-2.24984 0.09858,-0.21118 c 0.116349,-0.24924 0.339365,-0.47862 0.582101,-0.5987 l 0.174483,-0.0863 h 22.736207 22.736196 l 0.17449,0.0863 c 0.24273,0.12008 0.46575,0.34946 0.5821,0.5987 l 0.0986,0.21118 0.0106,2.24984 0.0106,2.24984 H 98.302283 74.689575 Z"
         style="fill:#fa759e;fill-opacity:1;stroke-width:0.03726127" />
      <path
         inkscape:connector-curvature="0"
         id="path3752"
         d="m 75.337225,173.44851 c -0.103969,-0.042 -0.288014,-0.26862 -0.40899,-0.50357 -0.189891,-0.3688 -0.219957,-2.50058 -0.219957,-15.59532 v -15.16813 h 23.572779 23.572773 v 15.31687 15.31687 l -0.36504,0.36663 -0.36505,0.36663 -22.798743,-0.0118 c -12.539304,-0.007 -22.883802,-0.0462 -22.987772,-0.0882 z m 20.639912,-6.49599 2.336796,-1.21877 2.328297,1.21877 c 1.99887,1.04632 2.43245,1.21876 3.06442,1.21876 0.61073,0 0.82534,-0.0787 1.25998,-0.46194 0.87936,-0.77542 0.91729,-1.17765 0.39333,-4.17001 l -0.45741,-2.61233 1.9235,-1.86708 c 2.24009,-2.17437 2.47565,-2.61669 2.02491,-3.80205 -0.41737,-1.09761 -0.77593,-1.2575 -3.78509,-1.68791 l -2.64028,-0.37764 -1.25429,-2.48074 c -1.20988,-2.39293 -1.27881,-2.49296 -1.947214,-2.82613 -0.816149,-0.4068 -1.547679,-0.33997 -2.180633,0.1992 -0.22253,0.18955 -0.917424,1.39199 -1.574326,2.72421 l -1.175966,2.38488 -2.393416,0.32984 c -1.316378,0.18142 -2.608733,0.39675 -2.871901,0.47852 -0.941694,0.29258 -1.51363,1.38316 -1.307374,2.49292 0.08246,0.4437 0.473834,0.92585 2.049174,2.52446 l 1.947242,1.976 -0.399734,2.35563 c -0.470116,2.77038 -0.48221,3.09914 -0.137674,3.74245 0.366613,0.68453 1.02276,1.07556 1.806738,1.07674 0.529718,8.5e-4 1.09856,-0.23081 2.990921,-1.21778 z"
         style="fill:#afdde9;fill-opacity:1;stroke-width:0.14904505" />
      <path
         inkscape:connector-curvature="0"
         id="path3754"
         d="m 93.204704,165.53627 c 0.405386,-2.02767 0.84682,-5.07528 0.776118,-5.35819 -0.04803,-0.19222 -0.956991,-1.17779 -2.019899,-2.19015 -1.06291,-1.01236 -1.932897,-1.87725 -1.933309,-1.92198 -4.21e-4,-0.0447 1.12026,-0.23334 2.490381,-0.41914 1.370121,-0.1858 2.664408,-0.40493 2.876196,-0.48697 0.304329,-0.11788 0.647359,-0.68128 1.636063,-2.68708 l 1.251003,-2.53793 1.257993,2.54093 c 0.98159,1.98261 1.34103,2.57303 1.63586,2.68707 0.20784,0.0804 1.49889,0.29818 2.86901,0.48398 1.37012,0.1858 2.49113,0.38426 2.49113,0.44103 0,0.0567 -0.8254,0.89995 -1.83422,1.87372 -1.00882,0.97378 -1.91105,1.91495 -2.00497,2.0915 -0.13586,0.25538 -0.0753,0.85846 0.2965,2.95089 0.25699,1.44646 0.42746,2.66988 0.37884,2.71872 -0.0486,0.0488 -1.12179,-0.45569 -2.38481,-1.12116 -1.26302,-0.66548 -2.4806,-1.20996 -2.705742,-1.20996 -0.225141,0 -0.886066,0.25926 -1.468724,0.57614 -0.582659,0.31687 -1.651896,0.8955 -2.376081,1.28585 l -1.316704,0.70971 z"
         style="fill:#f9f9f9;fill-opacity:1;stroke-width:0.14904505" />
      <path
         inkscape:connector-curvature="0"
         id="path3750-8"
         d="m 74.697618,143.63078 0.01066,-1.67734 0.09858,-0.15744 c 0.11635,-0.18583 0.339367,-0.35684 0.582102,-0.44636 l 0.174483,-0.0643 h 22.736207 22.7362 l 0.17449,0.0643 c 0.24273,0.0895 0.46575,0.26053 0.58209,0.44636 l 0.0986,0.15744 0.0106,1.67734 0.0106,1.67736 H 98.299658 74.68695 Z"
         style="fill:#ffffff;fill-opacity:1;stroke-width:0.03217313" />
      <path
         inkscape:connector-curvature="0"
         id="path3750-0"
         d="m 74.700242,135.88829 0.01066,-0.86264 0.09858,-0.0809 c 0.116348,-0.0956 0.339365,-0.18352 0.5821,-0.22955 l 0.174484,-0.0331 h 22.736203 22.736211 l 0.17449,0.0331 c 0.24273,0.0461 0.46575,0.13398 0.5821,0.22955 l 0.0986,0.0809 0.0106,0.86264 0.0106,0.86263 H 98.302282 74.689574 Z"
         style="fill:#fa859e;fill-opacity:1;stroke-width:0.0230726" />
      <path
         inkscape:connector-curvature="0"
         id="path4661"
         d="m 93.142616,165.85599 c 0,-0.0624 0.18925,-1.21901 0.420556,-2.57036 0.231309,-1.35135 0.420603,-2.64334 0.420656,-2.87109 9.4e-5,-0.39883 -0.07452,-0.48708 -2.024306,-2.39434 -1.382639,-1.35248 -1.974397,-1.99732 -1.866659,-2.03409 0.08676,-0.0296 1.246192,-0.20542 2.576516,-0.39068 1.330322,-0.18526 2.573081,-0.40028 2.761689,-0.47781 0.309716,-0.12732 0.464079,-0.38867 1.594166,-2.69911 l 1.251244,-2.55814 1.273222,2.55574 c 1.12727,2.26276 1.31221,2.57302 1.61333,2.70658 0.18706,0.083 1.42856,0.29905 2.75888,0.48021 1.33032,0.18115 2.4864,0.35156 2.56906,0.37868 0.0975,0.032 -0.55859,0.76467 -1.86666,2.08469 -1.71032,1.72595 -2.01661,2.08261 -2.01473,2.34606 8.6e-4,0.17088 0.2096,1.47512 0.46305,2.89833 0.25345,1.42321 0.45151,2.59765 0.44013,2.60986 -0.0114,0.0123 -1.10708,-0.54542 -2.43487,-1.23921 -1.69209,-0.88414 -2.521619,-1.26197 -2.773409,-1.26323 -0.344282,-0.002 -1.12835,0.37767 -4.189099,2.02706 -0.535022,0.28831 -0.972766,0.4732 -0.972766,0.41085 z"
         style="fill:#ffffff;fill-opacity:1;stroke-width:0.10539076" />
      <path
         inkscape:connector-curvature="0"
         id="path4663"
         d="m 93.161827,165.67774 c 0.02644,-0.16913 0.230932,-1.40068 0.454423,-2.73674 0.268143,-1.603 0.379364,-2.53539 0.327008,-2.74135 -0.05403,-0.21258 -0.698181,-0.91663 -2.019412,-2.20722 -1.067036,-1.04228 -1.911662,-1.92368 -1.876943,-1.95865 0.03472,-0.035 1.243962,-0.23504 2.687208,-0.4446 2.329796,-0.3383 2.65499,-0.40937 2.899689,-0.63371 0.151584,-0.13898 0.806599,-1.34369 1.45559,-2.67713 l 1.179985,-2.42444 1.284185,2.56566 c 1.13746,2.27254 1.32219,2.58131 1.61688,2.70264 0.18299,0.0753 1.42115,0.28774 2.75147,0.472 1.33032,0.18427 2.48565,0.35762 2.56739,0.38522 0.096,0.0324 -0.56499,0.7729 -1.86666,2.0912 -1.51827,1.53766 -2.01528,2.10498 -2.01528,2.30041 0,0.23289 0.75732,4.74935 0.89694,5.34909 0.0499,0.21431 -0.24616,0.088 -2.41324,-1.02978 -1.57657,-0.81318 -2.586931,-1.27406 -2.793053,-1.27406 -0.304612,0 -1.204921,0.43644 -4.091894,1.98359 l -1.09236,0.5854 z"
         style="fill:#ffffff;fill-opacity:1;stroke-width:0.10539076" />
      <flowRoot
         transform="matrix(0.21032773,0,0,0.21123633,20.078057,29.1311)"
         style="font-style:normal;font-weight:normal;font-size:40px;line-height:1.25;font-family:sans-serif;letter-spacing:0px;word-spacing:0px;fill:#164450;fill-opacity:1;stroke:none"
         id="flowRoot4750"
         xml:space="preserve"><flowRegion
           style="fill:#164450"
           id="flowRegion4752"><rect
             style="fill:#164450"
             y="727.9541"
             x="271.52899"
             height="43.840622"
             width="219.9102"
             id="rect4754" /></flowRegion><flowPara
           id="flowPara4756">MeetUs</flowPara></flowRoot>      <text
         transform="scale(0.94801316,1.0548377)"
         id="text4760-2-4"
         y="195.60338"
         x="103.27168"
         style="font-style:normal;font-variant:normal;font-weight:bold;font-stretch:normal;font-size:11.28528309px;line-height:5.25;font-family:'DejaVu Math TeX Gyre';-inkscape-font-specification:'DejaVu Math TeX Gyre Bold';text-align:center;letter-spacing:0px;word-spacing:0px;text-anchor:middle;fill:#000000;fill-opacity:1;stroke:none;stroke-width:0.21159907"
         xml:space="preserve"><tspan
           style="font-style:normal;font-variant:normal;font-weight:bold;font-stretch:normal;font-size:17.27794266px;line-height:5.25;font-family:'DejaVu Math TeX Gyre';-inkscape-font-specification:'DejaVu Math TeX Gyre Bold';text-align:center;text-anchor:middle;fill:#000000;fill-opacity:1;stroke-width:0.21159907"
           y="195.60338"
           x="103.27168"
           id="tspan4758-9-0"
           sodipodi:role="line">MeetUs</tspan></text>
      <text
         transform="scale(0.94801316,1.0548377)"
         id="text4760-2"
         y="194.67363"
         x="103.23987"
         style="font-style:normal;font-variant:normal;font-weight:bold;font-stretch:normal;font-size:11.28528309px;line-height:5.25;font-family:'DejaVu Math TeX Gyre';-inkscape-font-specification:'DejaVu Math TeX Gyre Bold';text-align:center;letter-spacing:0px;word-spacing:0px;text-anchor:middle;fill:#ffffff;fill-opacity:1;stroke:none;stroke-width:0.21159908"
         xml:space="preserve"><tspan
           style="font-style:normal;font-variant:normal;font-weight:bold;font-stretch:normal;font-size:17.27794266px;line-height:5.25;font-family:'DejaVu Math TeX Gyre';-inkscape-font-specification:'DejaVu Math TeX Gyre Bold';text-align:center;text-anchor:middle;fill:#ffffff;fill-opacity:1;stroke-width:0.21159908"
           y="194.67363"
           x="103.23987"
           id="tspan4758-9"
           sodipodi:role="line">MeetUs</tspan></text>
      <flowRoot
         xml:space="preserve"
         id="flowRoot51"
         style="font-style:normal;font-weight:normal;font-size:40px;line-height:1.25;font-family:sans-serif;letter-spacing:0px;word-spacing:0px;fill:#000000;fill-opacity:1;stroke:none"><flowRegion
           id="flowRegion53"><rect
             id="rect55"
             width="341.43155"
             height="543.4621"
             x="1280.8734"
             y="332.58038" /></flowRegion><flowPara
           id="flowPara57"></flowPara></flowRoot>      <flowRoot
         xml:space="preserve"
         id="flowRoot137"
         style="fill:black;fill-opacity:1;stroke:none;font-family:sans-serif;font-style:normal;font-weight:normal;font-size:40px;line-height:1.25;letter-spacing:0px;word-spacing:0px"><flowRegion
           id="flowRegion139"><rect
             id="rect141"
             width="1288.5714"
             height="222.85715"
             x="-140"
             y="785.37683" /></flowRegion><flowPara
           id="flowPara143"></flowPara></flowRoot>      <flowRoot
         xml:space="preserve"
         id="flowRoot145"
         style="fill:black;fill-opacity:1;stroke:none;font-family:sans-serif;font-style:normal;font-weight:normal;font-size:40px;line-height:1.25;letter-spacing:0px;word-spacing:0px"><flowRegion
           id="flowRegion147"><rect
             id="rect149"
             width="917.14288"
             height="197.14285"
             x="-140"
             y="836.80542" /></flowRegion><flowPara
           id="flowPara151"></flowPara></flowRoot>    </g>
  </g>
</svg>
