<?xml version="1.0" ?><svg style="enable-background:new 0 0 50 50;" version="1.1" viewBox="0 0 50 50" xml:space="preserve" xmlns="http://www.w3.org/2000/svg" xmlns:xlink="http://www.w3.org/1999/xlink"><g id="Layer_1"><path d="M8,20c0,12.981,15.643,28.086,16.309,28.723L25,49.383l0.691-0.661C26.357,48.086,42,32.981,42,20c0-8.765-4.452-19-17-19   S8,11.235,8,20z M40,20c0,10.642-11.966,23.5-15,26.588C21.966,43.5,10,30.642,10,20C10,7.466,17.749,3,25,3S40,7.466,40,20z"/><path d="M15,17c0,5.514,4.486,10,10,10s10-4.486,10-10S30.514,7,25,7S15,11.486,15,17z M33,17c0,4.411-3.589,8-8,8s-8-3.589-8-8   s3.589-8,8-8S33,12.589,33,17z"/></g><g/></svg>